<svg role="img" aria-labelledby="title desc" xmlns="http://www.w3.org/2000/svg" viewBox="0 0 680 248"><title id="title">문서나르미 워드마크</title><desc id="desc">채택 스케치의 손글씨 제품명을 외곽선으로 옮긴 워드마크</desc><path d="M550 182L545 176L542 175L530 176L524 178L516 178L515 179L502 179L493 181L487 181L486 180L479 182L470 181L462 183L455 183L449 181L441 187L440 192L445 198L450 200L463 200L470 198L486 199L487 198L496 198L505 196L523 196L527 194L537 194L546 192L549 188ZM46 181L49 233L53 239L58 242L73 243L79 241L97 239L107 236L121 235L136 231L141 231L148 226L149 223L148 216L146 214L140 212L126 213L123 215L115 215L112 217L98 218L95 220L90 220L89 221L68 222L65 214L65 206L64 205L65 199L63 194L63 186L60 179L57 176L53 175L50 176ZM155 125L151 119L145 117L140 117L128 120L115 120L112 122L102 122L94 124L81 124L71 126L35 128L25 130L12 129L9 130L5 134L4 141L9 147L11 147L13 149L31 148L36 146L40 147L42 146L57 146L58 145L68 145L73 143L83 143L85 153L85 162L84 163L85 181L84 184L88 192L92 194L99 193L102 190L104 185L103 180L103 157L102 156L102 153L104 149L103 148L103 142L104 141L109 141L112 139L124 139L131 137L148 136L153 133L155 129ZM312 72L309 75L307 82L309 87L308 90L310 96L309 109L310 110L310 131L311 132L311 157L313 159L313 163L320 169L328 170L358 163L364 163L369 161L379 160L383 158L387 152L387 148L383 142L378 140L374 140L363 144L358 144L343 148L336 148L335 149L330 148L329 138L328 137L328 113L327 112L327 99L326 98L327 89L322 76L317 72ZM618 66L605 65L604 66L591 67L586 69L580 69L575 71L565 71L558 76L557 85L560 89L562 98L561 115L562 116L562 130L563 131L564 162L566 167L574 173L580 173L601 168L618 166L624 163L628 155L628 150L627 149L628 77L626 75L625 71ZM607 82L610 84L611 88L611 117L610 118L609 147L604 150L582 153L579 137L579 118L577 108L576 88L589 84L600 84L604 82ZM212 49L209 48L203 49L197 59L196 71L187 92L187 95L183 103L183 106L179 113L179 116L176 121L176 124L174 126L173 132L171 134L166 147L159 160L158 164L161 172L165 174L172 173L177 167L178 161L181 157L184 150L184 147L188 142L188 139L193 131L195 131L202 137L211 147L222 156L225 161L231 164L237 163L241 158L242 154L241 150L238 146L226 136L217 126L209 120L201 111L201 106L206 95L206 91L209 87L210 80L212 77L212 73L214 70L215 55ZM401 36L397 38L394 43L394 54L397 67L396 92L397 93L397 111L398 112L397 194L398 198L401 202L409 203L414 200L415 196L415 175L416 174L415 146L416 141L420 139L430 137L438 137L444 133L446 129L446 126L440 119L437 118L428 119L423 121L417 121L415 119L415 113L414 112L415 93L414 92L414 81L413 80L414 73L412 65L412 56L407 39ZM515 35L500 33L491 35L479 35L475 37L464 36L457 42L456 48L458 52L462 55L469 55L474 53L483 53L493 51L503 51L504 52L504 76L503 79L490 83L483 83L478 85L470 86L463 92L460 99L460 112L459 113L459 125L458 126L458 144L461 149L468 155L475 156L483 154L498 153L504 151L519 150L529 147L532 143L531 135L525 131L516 131L514 133L503 134L497 136L483 136L482 137L478 137L475 132L475 122L476 121L477 104L478 103L488 100L493 100L496 98L512 97L520 89L521 77L522 76L520 68L522 46L520 40ZM272 30L267 33L264 41L267 56L267 67L266 68L267 92L266 96L249 100L238 100L231 105L230 113L234 118L237 119L249 118L253 116L258 116L259 117L265 116L266 117L265 122L266 126L266 144L265 145L265 164L264 165L265 168L264 171L264 198L268 205L276 206L279 205L283 199L283 178L284 177L283 161L284 160L284 138L285 137L285 128L284 127L285 100L284 99L284 94L285 93L285 75L286 73L284 65L285 55L282 40L279 33ZM661 29L657 32L655 36L657 98L656 99L656 116L655 117L656 140L655 141L655 174L654 175L654 184L653 185L653 196L654 197L654 206L656 210L661 213L666 213L671 210L673 205L673 186L674 185L673 145L674 144L674 117L675 116L674 115L674 102L675 101L674 79L675 78L675 71L674 70L674 56L672 51L672 38L669 31L665 29ZM124 9L109 4L100 4L88 8L66 10L52 14L48 14L44 12L41 12L37 14L35 19L35 25L36 26L37 62L39 68L40 95L48 105L57 106L58 105L66 105L70 103L82 103L86 101L104 100L109 98L116 98L123 94L127 88L128 84L127 83L127 72L128 71L128 57L129 56L129 39L131 33L131 20L129 15ZM107 22L111 26L111 32L112 33L108 79L103 81L98 81L94 83L82 84L75 86L65 86L64 87L59 86L56 76L56 62L54 55L53 31L56 29L60 29L75 25L80 25L85 23Z" fill="#0E3FAE" fill-rule="evenodd"/></svg>
